<svg width="130" height="130" viewBox="0 0 130 130" fill="none" xmlns="http://www.w3.org/2000/svg">
<path d="M113.236 32.448L93.4375 40.3715L44.6875 20.8715L56.55 16.12C61.9744 13.95 68.0256 13.95 73.45 16.12L110.87 31.0895C111.719 31.4272 112.515 31.8888 113.236 32.448ZM65.0065 51.74L84.6885 43.862L35.9385 24.362L19.1295 31.0895C18.2814 31.4272 17.485 31.8823 16.7635 32.4415L65.0065 51.74ZM13.221 38.038C13.0711 38.7299 12.997 39.4361 13 40.144V89.843C12.9997 91.792 13.5835 93.6964 14.6761 95.3103C15.7686 96.9243 17.3199 98.1738 19.1295 98.8975L56.55 113.867C57.2 114.127 57.8565 114.354 58.5195 114.549L58.5 113.75V87.75C58.5 84.0905 59.709 80.7105 61.75 78V57.4405L13.221 38.038ZM117 40.144V71.825L116.727 71.7665C116.031 68.0382 114.052 64.671 111.134 62.2481C108.216 59.8252 104.543 58.4992 100.75 58.5H87.75C83.9573 58.4992 80.2837 59.8252 77.3658 62.2481C74.4479 64.671 72.4693 68.0382 71.773 71.7665C70.5423 72.0005 69.368 72.3602 68.25 72.8455V57.4405L116.773 38.038C116.924 38.7227 117 39.4247 117 40.144ZM78 78V74.75C78 72.1641 79.0272 69.6842 80.8557 67.8557C82.6842 66.0272 85.1641 65 87.75 65H100.75C103.336 65 105.816 66.0272 107.644 67.8557C109.473 69.6842 110.5 72.1641 110.5 74.75V78H113.75C116.336 78 118.816 79.0272 120.644 80.8557C122.473 82.6842 123.5 85.1641 123.5 87.75V97.5H110.5V94.25C110.5 93.388 110.158 92.5614 109.548 91.9519C108.939 91.3424 108.112 91 107.25 91C106.388 91 105.561 91.3424 104.952 91.9519C104.342 92.5614 104 93.388 104 94.25V97.5H84.5V94.25C84.5 93.388 84.1576 92.5614 83.5481 91.9519C82.9386 91.3424 82.1119 91 81.25 91C80.388 91 79.5614 91.3424 78.9519 91.9519C78.3424 92.5614 78 93.388 78 94.25V97.5H65V87.75C65 85.1641 66.0272 82.6842 67.8557 80.8557C69.6842 79.0272 72.1641 78 74.75 78H78ZM84.5 74.75V78H104V74.75C104 73.888 103.658 73.0614 103.048 72.4519C102.439 71.8424 101.612 71.5 100.75 71.5H87.75C86.888 71.5 86.0614 71.8424 85.4519 72.4519C84.8424 73.0614 84.5 73.888 84.5 74.75ZM110.5 107.25V104H123.5V113.75C123.5 116.336 122.473 118.816 120.644 120.644C118.816 122.473 116.336 123.5 113.75 123.5H74.75C72.1641 123.5 69.6842 122.473 67.8557 120.644C66.0272 118.816 65 116.336 65 113.75V104H78V107.25C78 108.112 78.3424 108.939 78.9519 109.548C79.5614 110.158 80.388 110.5 81.25 110.5C82.1119 110.5 82.9386 110.158 83.5481 109.548C84.1576 108.939 84.5 108.112 84.5 107.25V104H104V107.25C104 108.112 104.342 108.939 104.952 109.548C105.561 110.158 106.388 110.5 107.25 110.5C108.112 110.5 108.939 110.158 109.548 109.548C110.158 108.939 110.5 108.112 110.5 107.25Z" fill="#404774"/>
</svg>
